<svg version="1" xmlns="http://www.w3.org/2000/svg" width="341.333" height="341.333" viewBox="0 0 256.000000 256.000000"><path d="M145.5 73.1c-13.2 6-40.6 18.4-61 27.6-20.3 9.2-37.3 16.9-37.8 17.3-.4.3 5.7 7.3 13.5 15.5l14.3 14.8 4.9-2.1c6.2-2.8 12.3-2.8 18.4-.1 6.3 2.9 23.2 20.2 23.2 23.9 0 1.4-1.6 5.9-3.6 10l-3.5 7.4 15.2 14.9 15.2 15 1.8-3.4c5.4-10.8 53.9-119 53.9-120.6 0-1.6-28.7-31.4-30-31.2-.3 0-11.3 5-24.5 11zm3 45.1c.6.6-7.5 18.2-9.1 19.8-1.2 1.3-2.3.5-8.9-6-4.1-4.1-7.5-7.8-7.5-8.3 0-.4 2.8-2.1 6.2-3.7 5.3-2.5 7.1-2.9 12.6-2.5 3.5.2 6.5.5 6.7.7z"/></svg>